# xmcd
# Track frame offsets:
# 150
# 16329
# 32562
# 51511
# 66212
# 83352
# 96402
# 111515
# 125123
# 147563
# 166600
# 184319
# 195361
# 214493
# 227306
# 245130
# 259583
# 274126
# 289893
# 308395
#
# Disc length: 4289 seconds
# Revision: 0
# Processed by: cddbd v1.5.1PL0 Copyright (c) Steve Scherf et al.
# Submitted via: VisiTrax 2.9.10.220 - For more info visit www.synapsa.com
#
DISCID=2510bf14
DTITLE=Isla Grant - The Best of Isla Grant
DYEAR=2004
DGENRE=Country
TTITLE0=It's A Dream Come True
TTITLE1=Twinkle, Twinkle Little Star
TTITLE2=Mother
TTITLE3=Will You Walk With Me
TTITLE4=The Beauty of My Home
TTITLE5=Galway Town
TTITLE6=A Single Yellow Rose
TTITLE7=Mother's Chair
TTITLE8=Sweet Baby Mine
TTITLE9=Cottage In the Country
TTITLE10=Partners In Rhyme
TTITLE11=Listen To The Children
TTITLE12=The Old Accordian Man
TTITLE13=Love Me Tonight
TTITLE14=Circle Of Gold
TTITLE15=I Don't Know Why
TTITLE16=Rachel Anna
TTITLE17=You're The Best Friend
TTITLE18=Only Yesterday
TTITLE19=We'll Meet Again My Friends
EXTD=
EXTT0=
EXTT1=
EXTT2=
EXTT3=
EXTT4=
EXTT5=
EXTT6=
EXTT7=
EXTT8=
EXTT9=
EXTT10=
EXTT11=
EXTT12=
EXTT13=
EXTT14=
EXTT15=
EXTT16=
EXTT17=
EXTT18=
EXTT19=
PLAYORDER=
